<?xml version="1.0" encoding="UTF-8" standalone="no"?>
<svg width="90px" height="54px" viewBox="0 0 90 54" version="1.1" xmlns="http://www.w3.org/2000/svg" xmlns:xlink="http://www.w3.org/1999/xlink" xmlns:sketch="http://www.bohemiancoding.com/sketch/ns">
    <!-- Generator: Sketch 3.2.2 (9983) - http://www.bohemiancoding.com/sketch -->
    <title>noun_61210_cc</title>
    <desc>Created with Sketch.</desc>
    <defs></defs>
    <g id="Page-1" stroke="none" stroke-width="1" fill="none" fill-rule="evenodd" sketch:type="MSPage">
        <g id="noun_61210_cc" sketch:type="MSLayerGroup" fill="#DADADA">
            <path d="M57.15,27.8532 L59.382,27.8532 L57.366,26.6976 L58.761,24.5916 L56.745,25.758 L56.25,23.1444 L55.755,25.758 L53.739,24.5916 L55.134,26.6976 L53.118,27.8532 L55.35,27.8532 L54.855,30.4776 L56.25,28.3716 L57.645,30.4776 L57.15,27.8532 L57.15,27.8532 Z M68.4,45.8568 L70.632,45.8568 L68.616,44.6904 L70.011,42.59628 L67.995,43.7616 L67.5,41.148 L67.005,43.7616 L64.989,42.59628 L66.384,44.6904 L64.368,45.8568 L66.6,45.8568 L66.105,48.4704 L67.5,46.3752 L68.895,48.46932 L68.4,45.8568 L68.4,45.8568 Z M68.4,9.8604 L70.632,9.8604 L68.616,8.694 L70.011,6.5988 L67.995,7.7652 L67.5,5.1408 L67.005,7.7652 L64.989,6.5988 L66.384,8.694 L64.368,9.8604 L66.6,9.8604 L66.105,12.474 L67.5,10.3788 L68.895,12.474 L68.4,9.8604 L68.4,9.8604 Z M73.098,31.0716 L72.684,29.51748 L73.7829,28.55628 L72.423,28.55628 L72,27 L71.577,28.5552 L70.218,28.5552 L71.3169,29.5164 L70.9029,31.07052 L72,30.1104 L73.098,31.0716 L73.098,31.0716 Z M78.399,20.8872 L80.6301,20.8872 L78.6141,19.7208 L80.01,17.6256 L77.994,18.7812 L77.499,16.1676 L77.0031,18.7812 L74.988,17.6256 L76.383,19.7208 L74.367,20.8872 L76.608,20.8872 L76.1031,23.5008 L77.499,21.4056 L78.894,23.5008 L78.399,20.8872 L78.399,20.8872 Z M3.141,27 L6.291,27 L18.279,19.8072 L18.279,27 L19.692,27 L19.692,16.8696 L1.404,16.8696 L1.404,18.5652 L7.776,18.5652 L1.404,22.3884 L1.404,26.1576 L14.058,18.5652 L17.208,18.5652 L3.141,27 L3.141,27 Z M19.692,1.6848 L18.279,1.6848 L18.279,7.1928 L9.099,1.6848 L2.808,1.6848 L14.058,8.4348 L10.917,8.4348 L1.404,2.7324 L1.404,4.6116 L7.776,8.4348 L1.404,8.4348 L1.404,10.1304 L19.692,10.1304 L19.692,1.6848 L19.692,1.6848 Z M45,1.6848 L42.192,1.6848 L30.942,8.4348 L27.792,8.4348 L39.042,1.6848 L35.901,1.6848 L26.721,7.1928 L26.721,1.6848 L25.308,1.6848 L25.308,10.1304 L45,10.1304 L45,8.4348 L37.224,8.4348 L45,3.7692 L45,1.6848 L45,1.6848 Z M45,25.11 L45,23.2308 L37.224,18.5652 L45,18.5652 L45,16.8696 L25.308,16.8696 L25.308,27 L26.721,27 L26.721,19.8072 L38.709,27 L45,27 L30.942,18.5652 L34.083,18.5652 L45,25.11 L45,25.11 Z M0,0 L90,0 L90,54 L0,54 L0,0 L0,0 Z M24.381,42.3036 L29.079,42.3036 L24.849,39.852 L27.774,35.4456 L23.544,37.8972 L22.5,32.4 L21.456,37.8972 L17.226,35.4456 L20.151,39.852 L15.921,42.3036 L20.619,42.3036 L19.575,47.8008 L22.5,43.3944 L25.425,47.8008 L24.381,42.3036 L24.381,42.3036 Z" id="Shape" sketch:type="MSShapeGroup"></path>
        </g>
    </g>
</svg>