<?xml version="1.0" encoding="UTF-8" standalone="no"?>
<svg width="90px" height="54px" viewBox="0 0 90 54" version="1.1" xmlns="http://www.w3.org/2000/svg" xmlns:xlink="http://www.w3.org/1999/xlink" xmlns:sketch="http://www.bohemiancoding.com/sketch/ns">
    <!-- Generator: Sketch 3.2.2 (9983) - http://www.bohemiancoding.com/sketch -->
    <title>noun_132814_cc</title>
    <desc>Created with Sketch.</desc>
    <defs></defs>
    <g id="Page-1" stroke="none" stroke-width="1" fill="none" fill-rule="evenodd" sketch:type="MSPage">
        <g id="noun_132814_cc" sketch:type="MSLayerGroup" fill="#DADADA">
            <g id="Group" sketch:type="MSShapeGroup">
                <path d="M0,0.5 L0,0.7 L0,53.2 L0,53.4 L90,53.4 L90,53.2 L90,0.7 L90,0.5 L0,0.5 L0,0.5 Z M68.8,52.1 L21.2,52.1 L21.2,1.9 L68.9,1.9 L68.9,52.1 L68.8,52.1 Z" id="Shape"></path>
                <path d="M28.9,26.9 L27.1,27.8 L35.7,35.1 C36,35.4 36.2,35.9 36.1,36.3 L35.3,38.9 C38.3,38.5 40.9,38.2 43.9,37.9 C44.2,37.9 44.6,38.1 44.6,38.4 L44.2,47.8 L45.6,47.8 L45.4,38.4 C45.4,38.1 45.8,37.8 46.1,37.8 C49.1,38.2 51.7,38.5 54.7,38.8 L53.9,36.2 C53.8,35.8 54,35.3 54.3,35 L62.9,27.7 L61.1,26.8 C60.3,26.5 60.5,26 60.8,24.9 L62.1,19.9 L57.1,21 C56.6,21.1 56.3,20.8 56.2,20.4 L55.6,18.1 L51.7,22.7 C51.1,23.4 50,23.4 50.4,21.7 L52.1,12.4 L49.8,13.6 C49.2,14 48.5,14 48.2,13.4 L45,7.6 L41.9,13.7 C41.5,14.4 40.9,14.3 40.3,13.9 L38,12.6 L39.7,21.9 C40.1,23.6 38.9,23.6 38.4,22.9 L34.5,18.3 L33.9,20.6 C33.8,20.9 33.5,21.2 33,21.2 L28,20.1 L29.3,25.1 C29.5,26.2 29.7,26.6 28.9,26.9 L28.9,26.9 Z" id="Shape"></path>
            </g>
        </g>
    </g>
</svg>