<?xml version="1.0" encoding="utf-8"?>
<!-- Generator: Adobe Illustrator 19.0.1, SVG Export Plug-In . SVG Version: 6.00 Build 0)  -->
<svg version="1.1" id="Layer_1" xmlns="http://www.w3.org/2000/svg" xmlns:xlink="http://www.w3.org/1999/xlink" x="0px" y="0px"
	 viewBox="0 0 612 792" style="enable-background:new 0 0 612 792;" xml:space="preserve">
<path d="M120.7,223.3L100,277.5c0,0-5.7,13.8,6.2,10.3c-13.8,9.7-25.2,6.5-10.3-31.7c4-10.2,12.3-32.8,12.3-32.8H92.5
	c0,0,14.5-4.2,35.3-23c-0.5,2.2-5.8,18.7-5.8,18.7h19l-6.8,4.5L120.7,223.3z"/>
<path d="M136,289.7l20.8-57.8c0,0,2-10.7-10.4-5.8c0.6-1.5,14.2-10.2,24.8-5.5c1.5,1.7-8.3,27.3-8.3,27.3l14,0.5
	c0,0-24.2,10.5-27.7,40.7"/>
<path d="M210.7,226.1c0,0-0.8,6.8-12.6,3.5c-2.6-0.6-10-1.5-16.8,6.4C185.1,226.5,210.8,209.9,210.7,226.1z"/>
<path d="M223.5,227.6c0,0-29.1,18-32.5,46.1c0,5.2-1.6,25.5,18.9,19.8c5.1-2.1,10.6-6.4,10.6-6.4s-23.6,14-16.2-19.5
	C206.8,256.2,212.2,243.2,223.5,227.6z"/>
<path d="M225.2,265.4c0,0,25.4-11.8,22.9-33.5c-1.5-4.5-2.5-9.4-14.8-10.2c4.9-1.1,15-0.5,17.1,5c1.1-0.4,16.1-5.5,16.1-5.5
	l-21.9,58.6c0,0-2.9,13.5,7.6,7.8c-4.4,6.1-31.6,15.5-17-14"/>
<path d="M288.3,271.4c0,0-33.9-6.9-7.9-41.9c0,0,10.8-11.1,17-8.4c0,0-25.6,27.7-8.7,50.3"/>
<path d="M296,271.4c0,0,25.6-26.6,10-51.4C319.2,220.7,341.5,252.8,296,271.4z"/>
<path d="M320.2,218.5c0,0,17.9-18.5,26.9-6.5c0.2,1.5,0.2,14.2-12.8,3.5C331.8,215,327,213.9,320.2,218.5z"/>
<path d="M359.6,226c0,0-14.8,20-14.2,27.5c2.4,0.1,10.4,0,10.4,0s-27.6,16.1-5.1,36.5c2.2,0.8,12.2-0.8,13.4-1.6
	c-2.8,2-45,19-33.9-25.9C331.8,257.8,337.9,236.2,359.6,226z"/>
<path d="M367.6,251.9c0,0,39.4-21.1,13.2-31.9c-4.8-0.6-10.2,0.4-11.6,1.6C371.1,222.8,387,228.6,367.6,251.9z"/>
<path d="M417.4,227.8c0,0-34.8,45-20.2,62.4c3.2,0.2,10.9-2.1,11.6-2.5c-1.1,1.2-35.1,21.5-25.5-18.9
	C391.1,252.6,407,229.8,417.4,227.8z"/>
<path d="M459.2,177.8H481l-39.1,103.6c0,0-1.8,11.9,8.1,6.2c-2,2.5-21.5,15-21.4-2.9c3.1-6.9,6.9-19,6.9-19H422
	c0,0,23.6-13,23.6-27.6s-7.1-15.6-16.1-15.6c0.1-1.8,12.9-5.6,19.9,3.9c1.6-5.5,14.9-39.5,14.9-39.5S464.5,178,459.2,177.8z"/>
<path d="M466.9,231l13.4-10.2c0,0,6.8-1.6,8.8,7c2.4,9.8,6.8,23.8,10.5,61h6.5c0,0-4.8,16.8-26.5,41.4c0,0,8.9-15,8.8-20.2
	c0-8.8-4.5-80.5-13.2-79.8C472.9,229.9,466.9,231,466.9,231z"/>
<path d="M521.3,245.2c0,0-15.3-28.3-1-27.5c3.5,0.5,15,4,1,42C518.8,266.5,513.5,276.3,521.3,245.2z"/>
<path d="M266.6,306.8c0,0-27.3,22.2,9.5,39.8C269.2,349.2,219.5,328.4,266.6,306.8z"/>
<path d="M276.2,276.8c0,0-16.3,7.7-5.6,16.4c4.6,3.9,43.4,25.3,40,37.1c-1.1,3.5-0.8,8.1-11.1,15.2c8-4.4,28.1-12.4,18.4-29.4
	c-5.4-6.4-15.2-15.5-35.8-26.8C277.8,287.1,272.7,280.8,276.2,276.8z"/>
<path d="M164.5,378.4"/>
<path d="M173.2,366.2c-0.1,7.8,17,23.7,4.2,25C173.2,391.2,165,381.7,173.2,366.2z"/>
<path d="M179.8,359.7c0,0,33.5,3.3,38.3-1.2c2.8-1.8,9.5-6.7,9.5-6.7h-33.2L179.8,359.7z"/>
<path d="M211.7,367.3c0,0-24.8,19.2-20.5,41.2c0.7,3,6.3,14.3,7.8,13.2c1.2-2,6.2-13.2,6.2-13.2S191.5,393,211.7,367.3z"/>
<path d="M239.2,377.2c0,0,3.3-11.2,0-21.8c0-4.2,8.2-11.2,10-1C248.3,360.3,241.7,376.7,239.2,377.2z"/>
<path d="M282.5,359.7c0,0-4-15.8,8.2-8.8c2.2,2.2,7.2,19,0,35.8C290.7,380.2,295.7,370,282.5,359.7z"/>
<path d="M314.3,358.2c0,0,22.8-16.2,21.2,3c-4.2,13.8-18.3,52.3-18.3,52.3s0.4,10.5,7.8,5.8c-1.8,2.3-18.8,13.8-21.3-2.5
	c2.8-8.2,19-52,19-52S324.8,353.8,314.3,358.2z"/>
<path d="M332.4,327.7c0,0,7.6,19.6,16.9,0C346.8,324.5,340.5,312.6,332.4,327.7z"/>
<path d="M326.5,341.3"/>
<path d="M370.5,308.8h21.8L354,411.8c0,0-0.5,13.8,6.5,7.5c-3,3.8-22.5,13.5-19.6-3.5c3.1-14.2,34.4-95.5,34.4-95.5
	S378,309.7,370.5,308.8z"/>
<path d="M406.2,308.8h20.2l-37.8,102.7c0,0-1.8,13.2,7,7.5c-2.5,3.5-22,13.5-20.5-4.5c3.8-13.2,34.5-91.8,34.5-91.8
	S413.2,311.9,406.2,308.8z"/>
<path d="M439.7,342c0,0,0.7-11.3,15.8-1.2c3.3,0,9.2-0.3,10.7-3c-0.8,3.3-10.3,10-18.2,11C442.5,346.8,439,344.5,439.7,342z"/>
<path d="M238.3,385.3c0,0,12.8,2,12,9.3c1.2,3.8,7.2,9.8,11,5.3c0,0,5.3-12.7-11-14.7"/>
<path d="M414.3,402h21.8L397,504.5c0,0-2.3,12.7,7,7.5c1.7,0.3,1,5-7.3,6.5c-8.4,0.3-14.7-0.8-12.9-12.7c2.7-8,5.8-15.2,5.8-15.2
	H377c0,0,22.5-15,23-24.7c0-3.5,5-18.5-15.3-18.5c0.5-2.3,11.3-4,16.2,1c1.7,2,4.3,2.7,4-0.3c1.5-4,13.7-35.3,13.7-35.3
	S421,407.7,414.3,402z"/>
<path d="M363.7,511.7c0,0-17.8,12.5-15.2-11.7c1.7-10.3,11.3-35.5,23.5-47.2c0.5-1.5-2.1-2-11.9,7.4c-7.8,8.2-24.3,24.9-24.5,47.4
	C335.8,512.5,345,527.8,363.7,511.7z"/>
<path d="M325,513.5c0,0-8.4,0.5-5.4-10.5c2-8.8,14.7-41.7,14.7-41.7s7.3-16.8-9.5-16.3c-4.2,0.3-21.3,7.2-27,16.7
	c4.5-3,25.6-17.5,21.8-0.5c-3,11.3-17.5,51.2-17.5,51.2s-2.7,7.1,3,6.6C310.7,518.2,322.5,516.7,325,513.5z"/>
<path d="M293.5,475.8c0,0-21.2,8-28,41.8c-5.8,0-13.8,0-13.8,0l19.7-52.7c0,0,7.3-17.7-10.2-11c2-3,22.2-13,27.5-5.3
	c-1,4.3-9.2,26.5-9.2,26.5L293.5,475.8z"/>
<path d="M234.3,393.5c0,0-7.3,30.7,36.3,17c4.2-2.2,13.2-9.2,14.1-10.7c-0.5,3-6.6,18.2-25.4,25.6c-11.1,0.2-34.9,2.1-29.1-26.9
	C232.2,392.5,234.8,390.1,234.3,393.5z"/>
<path d="M231.3,388.6c0,0-12.4,6.9-18.8,35.5c-3.2,10.7-8,21.7-8,21.7h45.2l-20.8,59.8c0,0-1.5,13,6.5,7.7
	c-2.2,3.2-18.8,12.8-20.8-3.8c2.3-9,18.3-53.2,18.3-53.2s5-5.8,5.7-5.8c0.2-1.5-34.8-1.2-34.8-1.2l-22.3,62.5c0,0-7.5,22.2-34,31
	c3-3.3,16.8-12,22.5-37.2c1.8-6.7,20.3-56.5,20.3-56.5H160c0,0,0.7-2.8,1.2-3.3s30,0,30,0S209,387.9,231.3,388.6z"/>
<path d="M134.5,542.8c0,0-12.7-2.3-12.2-12.3c-1.8-3.5-11.2-8.8-11.3,2.7C112.7,535.7,120.3,547.2,134.5,542.8z"/>
<path d="M233.5,545.5c0,0,27.3-10.7,23.8-1.3c-3,8.7-19,52.8-19,52.8s-1.8,21.3,21,1.2c-7.8,8.5-19.8,17-29.8,15.5
	c-3.7-1.3-11-10.7,0-29.2c3.8-10.3,11.2-30.7,11.2-30.7S242.5,545.2,233.5,545.5z"/>
<path d="M265.3,584c0,0,21.7-18.2,21.7-23.8c2.2-7.3,7.2-18.5,7.2-18.5s11.9-1.7,11.9,0c0,1.7-19.2,55.2-19.2,55.2s-5,16.2,9.7,9
	c-4.5,3.8-33,19.7-22.5-9.2c3.3-7.3,5.3-12.7,5.3-12.7H265.3z"/>
<path d="M335.6,544.2c0,0-22.3,11.5-9.9,31.5c5.2,7,16.7,25.2,8.7,36.2c3-0.5,26.5-15.8,7.5-36.5
	C340.5,572.8,327.3,557.2,335.6,544.2z"/>
<path d="M362.5,552.2c0,0,2-12.1-17.7-11.2c1.5,0.9,7.2,6.4,6.8,10.6C353.5,555,360.8,559.8,362.5,552.2z"/>
<path d="M310.6,599.6c-0.4,0.1-10,5.9,2.6,14c4,1.1,11.9,0,11.9,0s-7.5-3.5-7.6-7.7C315.9,602.5,314,599.1,310.6,599.6z"/>
</svg>
