<?xml version="1.0" encoding="UTF-8" standalone="no"?>
<svg width="90px" height="56px" viewBox="0 0 90 56" version="1.1" xmlns="http://www.w3.org/2000/svg" xmlns:xlink="http://www.w3.org/1999/xlink" xmlns:sketch="http://www.bohemiancoding.com/sketch/ns">
    <!-- Generator: Sketch 3.2.2 (9983) - http://www.bohemiancoding.com/sketch -->
    <title>amerFlag</title>
    <desc>Created with Sketch.</desc>
    <defs></defs>
    <g id="Page-1" stroke="none" stroke-width="1" fill="none" fill-rule="evenodd" sketch:type="MSPage">
        <g id="amerFlag" sketch:type="MSLayerGroup" fill="#DADADA">
            <g id="Page-1" sketch:type="MSShapeGroup">
                <g id="noun_132850_cc">
                    <path d="M38.7,0.3 L38.4,0.3 L0.3,0.3 L0,0.3 L0,34.4 L0,38.7 L0,42.9 L0,47.2 L0,51.4 L0,55.7 L90,55.7 L90,51.4 L90,47.2 L90,42.9 L90,38.7 L90,34.4 L90,30.2 L90,25.9 L90,21.7 L90,17.4 L90,13.2 L90,8.9 L90,4.7 L90,0.4 L38.7,0.4 L38.7,0.3 L38.7,0.3 Z M35.6,2.6 L36.8,2.6 L35.7,3.4 L36.1,4.6 L35,3.8 L33.9,4.7 L34.4,3.4 L33.3,2.6 L34.5,2.6 L34.8,1.7 L35,1.7 L35.6,2.6 L35.6,2.6 Z M36.2,29.3 L35.1,28.4 L34,29.3 L34.5,28 L33.4,27.2 L34.6,27.2 L35,26.1 L35.5,27.2 L36.7,27.2 L35.8,28 L36.2,29.3 L36.2,29.3 Z M32.9,26.1 L31.8,25.3 L30.7,26.2 L31.2,24.9 L30.1,24.1 L31.4,24.1 L31.8,23 L32.2,24.1 L33.4,24.1 L32.3,24.9 L32.9,26.1 L32.9,26.1 Z M29.9,29.3 L28.8,28.4 L27.7,29.3 L28.1,28 L27,27.2 L28.3,27.2 L28.7,26.1 L29.1,27.2 L30.4,27.2 L29.5,28 L29.9,29.3 L29.9,29.3 Z M26.5,26.1 L25.4,25.3 L24.3,26.2 L24.8,24.9 L23.7,24.1 L24.9,24.1 L25.3,23 L25.8,24.1 L27,24.1 L25.9,24.9 L26.5,26.1 L26.5,26.1 Z M23.5,29.3 L22.4,28.4 L21.3,29.3 L21.8,28 L20.7,27.2 L22,27.2 L22.4,26.1 L22.8,27.2 L24,27.2 L23,28 L23.5,29.3 L23.5,29.3 Z M20.2,26.1 L19.1,25.3 L18,26.2 L18.4,24.9 L17.3,24.1 L18.6,24.1 L19,23 L19.4,24.1 L20.7,24.1 L19.6,24.9 L20.2,26.1 L20.2,26.1 Z M17.2,29.3 L16.1,28.4 L15,29.3 L15.5,28 L14.4,27.2 L15.6,27.2 L16.1,26.1 L16.5,27.2 L17.7,27.2 L16.7,28 L17.2,29.3 L17.2,29.3 Z M13.9,26.1 L12.8,25.3 L11.7,26.2 L12.1,24.9 L11,24.1 L12.3,24.1 L12.7,23 L13.1,24.1 L14.4,24.1 L13.3,24.9 L13.9,26.1 L13.9,26.1 Z M10.8,29.3 L9.7,28.4 L8.6,29.3 L9.1,28 L8,27.2 L9.2,27.2 L9.6,26.1 L10.1,27.2 L11.3,27.2 L10.4,28 L10.8,29.3 L10.8,29.3 Z M7.5,26.1 L6.4,25.3 L5.3,26.2 L5.8,24.9 L4.7,24.1 L6,24.1 L6.4,23 L6.8,24.1 L8,24.1 L6.9,24.9 L7.5,26.1 L7.5,26.1 Z M4.5,29.3 L3.4,28.4 L2.3,29.3 L2.8,28 L1.7,27.2 L3,27.2 L3.4,26 L3.8,27.1 L5.1,27.1 L4.1,28 L4.5,29.3 L4.5,29.3 Z M3.5,1.7 L3.8,2.6 L5.1,2.6 L4,3.4 L4.4,4.6 L3.3,3.8 L2.2,4.7 L2.6,3.4 L1.5,2.6 L3,2.6 L3.3,1.7 L3.5,1.7 L3.5,1.7 Z M9.8,1.7 L10.2,2.6 L11.4,2.6 L10.3,3.4 L10.7,4.6 L9.6,3.8 L8.5,4.7 L9,3.4 L7.9,2.6 L9.1,2.6 L9.4,1.7 L9.8,1.7 L9.8,1.7 Z M16.2,1.7 L16.5,2.6 L17.7,2.6 L16.6,3.4 L17.1,4.6 L16,3.8 L15,4.7 L15.5,3.4 L14.4,2.6 L15.6,2.6 L16,1.7 L16.2,1.7 L16.2,1.7 Z M22.6,1.7 L22.9,2.6 L24.1,2.6 L23.1,3.4 L23.5,4.6 L22.4,3.8 L21.3,4.7 L21.8,3.4 L20.7,2.6 L22,2.6 L22.3,1.7 L22.6,1.7 L22.6,1.7 Z M28.9,1.7 L29.2,2.6 L30.5,2.6 L29.4,3.4 L29.8,4.6 L28.7,3.8 L27.6,4.7 L28,3.4 L26.9,2.6 L28.2,2.6 L28.5,1.7 L28.9,1.7 L28.9,1.7 Z M32.9,20 L31.8,19.2 L30.7,20 L31.2,18.8 L30.1,18 L31.4,18 L31.8,16.9 L32.2,18 L33.4,18 L32.3,18.8 L32.9,20 L32.9,20 Z M29.9,23.1 L28.8,22.3 L27.7,23.1 L28.1,21.9 L27,21.1 L28.3,21.1 L28.7,20 L29.1,21.1 L30.4,21.1 L29.3,21.9 L29.9,23.1 L29.9,23.1 Z M26.5,20 L25.4,19.2 L24.4,20 L24.9,18.8 L23.8,18 L25,18 L25.4,16.9 L25.9,18 L27.1,18 L26,18.8 L26.5,20 L26.5,20 Z M23.5,23.1 L22.4,22.3 L21.3,23.1 L21.8,21.9 L20.7,21.1 L22,21.1 L22.4,20 L22.8,21.1 L24,21.1 L23,21.9 L23.5,23.1 L23.5,23.1 Z M20.2,20 L19.1,19.2 L18.1,20 L18.5,18.8 L17.4,18 L18.7,18 L19.1,16.9 L19.5,18 L20.8,18 L19.7,18.8 L20.2,20 L20.2,20 Z M17.2,23.1 L16.1,22.3 L15,23.1 L15.5,21.9 L14.4,21.1 L15.6,21.1 L16.1,20 L16.5,21.1 L17.7,21.1 L16.6,21.9 L17.2,23.1 L17.2,23.1 Z M13.9,20 L12.8,19.2 L11.8,20 L12.2,18.8 L11.1,18 L12.4,18 L12.8,16.9 L13.2,18 L14.5,18 L13.4,18.8 L13.9,20 L13.9,20 Z M10.8,23.1 L9.7,22.3 L8.6,23.1 L9.1,21.9 L8,21.1 L9.2,21.1 L9.6,20 L10.1,21.1 L11.3,21.1 L10.2,21.9 L10.8,23.1 L10.8,23.1 Z M7.5,20 L6.4,19.2 L5.3,20 L5.8,18.8 L4.8,18 L6.1,18 L6.5,16.9 L6.9,18 L8.1,18 L7,18.8 L7.5,20 L7.5,20 Z M4.5,23.1 L3.4,22.3 L2.3,23.1 L2.7,21.9 L1.6,21.1 L3,21.1 L3.4,20 L3.8,21.1 L5.1,21.1 L4,21.9 L4.5,23.1 L4.5,23.1 Z M29.9,10.8 L28.8,10 L27.7,10.8 L28.1,9.6 L27,8.8 L28.3,8.8 L28.7,7.6 L29.1,8.8 L30.4,8.8 L29.3,9.6 L29.9,10.8 L29.9,10.8 Z M29.9,16.9 L28.8,16.1 L27.7,16.9 L28.1,15.7 L27,14.9 L28.3,14.9 L28.7,13.7 L29.1,14.9 L30.4,14.9 L29.3,15.7 L29.9,16.9 L29.9,16.9 Z M26.5,13.9 L25.4,13.1 L24.3,13.9 L24.8,12.7 L23.7,11.9 L24.9,11.9 L25.3,10.7 L25.8,11.9 L27,11.9 L25.9,12.7 L26.5,13.9 L26.5,13.9 Z M23.5,16.9 L22.4,16.1 L21.3,16.9 L21.8,15.7 L20.7,14.9 L22,14.9 L22.4,13.7 L22.8,14.9 L24,14.9 L23,15.7 L23.5,16.9 L23.5,16.9 Z M20.2,13.9 L19.1,13.1 L18,13.9 L18.4,12.7 L17.3,11.9 L18.6,11.9 L19,10.7 L19.4,11.9 L20.7,11.9 L19.6,12.7 L20.2,13.9 L20.2,13.9 Z M17.2,16.9 L16.1,16.1 L15,16.9 L15.5,15.7 L14.4,14.9 L15.6,14.9 L16.1,13.7 L16.5,14.9 L17.7,14.9 L16.6,15.7 L17.2,16.9 L17.2,16.9 Z M13.9,13.9 L12.8,13.1 L11.7,13.9 L12.1,12.7 L11,11.9 L12.3,11.9 L12.7,10.7 L13.1,11.9 L14.4,11.9 L13.3,12.7 L13.9,13.9 L13.9,13.9 Z M10.8,16.9 L9.7,16.1 L8.6,16.9 L9.1,15.7 L8,14.9 L9.2,14.9 L9.6,13.7 L10.1,14.9 L11.3,14.9 L10.2,15.7 L10.8,16.9 L10.8,16.9 Z M7.5,13.9 L6.4,13.1 L5.3,13.9 L5.8,12.7 L4.7,11.9 L6,11.9 L6.4,10.7 L6.8,11.9 L8,11.9 L6.9,12.7 L7.5,13.9 L7.5,13.9 Z M26.1,6.4 L26.5,7.7 L25.4,6.8 L24.3,7.7 L24.8,6.4 L23.7,5.6 L24.9,5.6 L25.3,4.5 L25.8,5.6 L27,5.6 L26.1,6.4 L26.1,6.4 Z M24.1,8.8 L23.1,9.6 L23.5,10.8 L22.5,10 L21.4,10.8 L21.9,9.6 L20.8,8.8 L22.1,8.8 L22.5,7.6 L22.9,8.8 L24.1,8.8 L24.1,8.8 Z M19.8,6.4 L20.2,7.7 L19.1,6.8 L18,7.7 L18.4,6.4 L17.3,5.6 L18.6,5.6 L19,4.5 L19.4,5.6 L20.7,5.6 L19.8,6.4 L19.8,6.4 Z M17.8,8.8 L16.7,9.6 L17.2,10.8 L16.2,10 L15,10.8 L15.5,9.6 L14.4,8.8 L15.6,8.8 L16.1,7.6 L16.5,8.8 L17.8,8.8 L17.8,8.8 Z M13.5,6.4 L13.9,7.7 L12.8,6.8 L11.7,7.7 L12.1,6.4 L11,5.6 L12.3,5.6 L12.7,4.5 L13.1,5.6 L14.4,5.6 L13.5,6.4 L13.5,6.4 Z M11.5,8.8 L10.4,9.6 L10.8,10.8 L9.7,10 L8.6,10.8 L9.1,9.6 L8,8.8 L9.2,8.8 L9.6,7.6 L10.1,8.8 L11.5,8.8 L11.5,8.8 Z M7.1,6.4 L7.6,7.7 L6.5,6.8 L5.4,7.7 L5.9,6.4 L4.8,5.6 L6.1,5.6 L6.5,4.5 L6.9,5.6 L8.1,5.6 L7.1,6.4 L7.1,6.4 Z M5.1,8.8 L4,9.6 L4.4,10.8 L3.4,10 L2.3,10.8 L2.7,9.6 L1.6,8.8 L3,8.8 L3.4,7.6 L3.8,8.8 L5.1,8.8 L5.1,8.8 Z M3,14.9 L3.4,13.7 L3.8,14.9 L5.1,14.9 L4,15.7 L4.4,16.9 L3.3,16.1 L2.2,16.9 L2.6,15.7 L1.5,14.9 L3,14.9 L3,14.9 Z M32.9,13.9 L31.8,13.1 L30.7,13.9 L31.2,12.7 L30.1,11.9 L31.4,11.9 L31.8,10.7 L32.2,11.9 L33.4,11.9 L32.3,12.7 L32.9,13.9 L32.9,13.9 Z M32.9,7.8 L31.8,6.9 L30.7,7.8 L31.2,6.5 L30.1,5.7 L31.4,5.7 L31.8,4.6 L32.2,5.7 L33.4,5.7 L32.3,6.5 L32.9,7.8 L32.9,7.8 Z M36.2,23.1 L35.1,22.3 L34,23.1 L34.5,21.9 L33.4,21.1 L34.6,21.1 L35,20 L35.5,21.1 L36.7,21.1 L35.6,21.9 L36.2,23.1 L36.2,23.1 Z M36.2,16.9 L35.1,16.1 L34,16.9 L34.5,15.7 L33.4,14.9 L34.6,14.9 L35,13.7 L35.5,14.9 L36.7,14.9 L35.6,15.7 L36.2,16.9 L36.2,16.9 Z M36.2,10.8 L35.1,10 L34,10.8 L34.5,9.6 L33.4,8.8 L34.6,8.8 L35,7.6 L35.5,8.8 L36.7,8.8 L35.6,9.6 L36.2,10.8 L36.2,10.8 Z M88.6,51.4 L1.4,51.4 L1.4,47.2 L88.7,47.2 L88.7,51.4 L88.6,51.4 L88.6,51.4 Z M88.6,42.9 L1.4,42.9 L1.4,38.7 L88.7,38.7 L88.7,42.9 L88.6,42.9 L88.6,42.9 Z M88.6,34.4 L1.4,34.4 L1.4,30.2 L38.4,30.2 L38.7,30.2 L88.7,30.2 L88.7,34.4 L88.6,34.4 L88.6,34.4 Z M88.6,25.8 L38.6,25.8 L38.6,21.6 L88.6,21.6 L88.6,25.8 L88.6,25.8 Z M88.6,17.3 L38.6,17.3 L38.6,13.1 L88.6,13.1 L88.6,17.3 L88.6,17.3 Z M88.6,8.8 L38.6,8.8 L38.6,4.6 L88.6,4.6 L88.6,8.8 L88.6,8.8 Z" id="Shape"></path>
                </g>
            </g>
        </g>
    </g>
</svg>