<?xml version="1.0" encoding="UTF-8" standalone="no"?>
<svg width="90px" height="54px" viewBox="0 0 90 54" version="1.1" xmlns="http://www.w3.org/2000/svg" xmlns:xlink="http://www.w3.org/1999/xlink" xmlns:sketch="http://www.bohemiancoding.com/sketch/ns">
    <!-- Generator: Sketch 3.2.2 (9983) - http://www.bohemiancoding.com/sketch -->
    <title>noun_42048_cc</title>
    <desc>Created with Sketch.</desc>
    <defs></defs>
    <g id="Page-1" stroke="none" stroke-width="1" fill="none" fill-rule="evenodd" sketch:type="MSPage">
        <g id="noun_42048_cc" sketch:type="MSLayerGroup" fill="#DADADA">
            <g id="Group" sketch:type="MSShapeGroup">
                <path d="M0,0 L0,54 L90,54 L90,0 L0,0 L0,0 Z M45.0025462,12.2150391 L42.7983518,13.3970292 L43.2193154,10.8935341 L41.4360844,9.12054913 L43.9004493,8.75529378 L45.0025464,6.47753906 L46.1046441,8.75529437 L48.5690088,9.12055097 L46.7857771,10.8935346 L47.2067408,13.3970292 L45.0025462,12.2150391 L45.0025462,12.2150391 Z M52.7030466,14.1958482 L50.1785387,14.1614684 L51.8470074,12.1954406 L51.2261138,9.80403961 L53.5505537,10.6706144 L55.6913279,9.22702752 L55.459442,11.7286284 L57.4034062,13.227845 L54.9356537,13.9073426 L53.9963152,16.2774951 L52.7030466,14.1958482 L52.7030466,14.1958482 Z M58.3402044,19.6075195 L56.1718224,18.3659817 L58.6407313,17.4642167 L59.3485431,15.0951738 L60.9102259,16.9613807 L63.5160594,16.7387696 L62.0123226,18.793914 L62.9150034,21.0253768 L60.4239621,20.4293175 L58.3760166,22.0310475 L58.3402044,19.6075195 L58.3402044,19.6075195 Z M60.4035473,26.9999999 L59.1723073,24.8839733 L61.7801147,25.2880983 L63.6269743,23.5761965 L64.0074487,25.9419869 L66.3801098,27.0000001 L64.0074476,28.0580138 L63.6269726,30.423804 L61.7801141,28.7119016 L59.1723073,29.1160267 L60.4035473,26.9999999 L60.4035473,26.9999999 Z M58.3402044,34.3924804 L58.3760166,31.9689525 L60.4239626,33.5706826 L62.9150051,32.9746246 L62.0123231,35.2060869 L63.5160589,37.2612306 L60.9102248,37.0386197 L59.3485414,38.9048258 L58.6407308,36.5357829 L56.1718224,35.6340183 L58.3402044,34.3924804 L58.3402044,34.3924804 Z M52.7030471,39.8041517 L53.9963152,37.7225049 L54.9356541,40.0926578 L57.4034068,40.7721569 L55.4594415,42.2713725 L55.6913279,44.7729725 L53.5505527,43.3293855 L51.2261124,44.1959591 L51.8470074,41.8045589 L50.1785387,39.8385316 L52.7030471,39.8041517 L52.7030471,39.8041517 Z M45.0025464,41.7849609 L47.2067408,40.6029708 L46.7857772,43.1064659 L48.5690083,44.8794509 L46.1046434,45.2447064 L45.0025463,47.522461 L43.9004486,45.2447055 L41.4360838,44.879449 L43.2193155,43.1064654 L42.7983519,40.6029708 L45.0025464,41.7849609 L45.0025464,41.7849609 Z M37.3020459,39.8041518 L39.8265542,39.8385316 L38.1580853,41.8045594 L38.778979,44.1959604 L36.4545392,43.3293856 L34.3137646,44.7729725 L34.5456509,42.2713716 L32.6016861,40.772155 L35.0694392,40.0926574 L36.0087773,37.7225049 L37.3020459,39.8041518 L37.3020459,39.8041518 Z M31.6648883,34.3924805 L33.8332704,35.6340183 L31.3643612,36.5357833 L30.6565496,38.9048262 L29.0948667,37.0386193 L26.4890333,37.2612304 L27.9927698,35.206086 L27.0900889,32.9746232 L29.5811308,33.5706825 L31.6290759,31.9689525 L31.6648883,34.3924805 L31.6648883,34.3924805 Z M29.6015453,27.0000001 L30.8327851,29.1160267 L28.2249777,28.7119017 L26.3781183,30.4238035 L25.997644,28.0580131 L23.6249828,26.9999999 L25.9976446,25.9419862 L26.3781202,23.576196 L28.2249782,25.2880984 L30.8327851,24.8839733 L29.6015453,27.0000001 L29.6015453,27.0000001 Z M31.6648882,19.6075196 L31.6290759,22.0310475 L29.5811303,20.4293174 L27.0900876,21.0253754 L27.9927696,18.7939131 L26.4890333,16.7387694 L29.0948676,16.9613803 L30.6565515,15.0951742 L31.3643616,17.4642171 L33.8332704,18.3659817 L31.6648882,19.6075196 L31.6648882,19.6075196 Z M37.3020458,14.1958483 L36.0087773,16.2774951 L35.0694387,13.9073423 L32.6016857,13.2278431 L34.5456512,11.7286275 L34.3137646,9.22702747 L36.4545401,10.6706145 L38.7789805,9.8040409 L38.1580854,12.1954411 L39.8265541,14.1614684 L37.3020458,14.1958483 L37.3020458,14.1958483 Z" id="Shape"></path>
            </g>
        </g>
    </g>
</svg>