<?xml version="1.0" encoding="UTF-8" standalone="no"?>
<svg width="90px" height="54px" viewBox="0 0 90 54" version="1.1" xmlns="http://www.w3.org/2000/svg" xmlns:xlink="http://www.w3.org/1999/xlink" xmlns:sketch="http://www.bohemiancoding.com/sketch/ns">
    <!-- Generator: Sketch 3.2.2 (9983) - http://www.bohemiancoding.com/sketch -->
    <title>ukFlag</title>
    <desc>Created with Sketch.</desc>
    <defs></defs>
    <g id="Page-1" stroke="none" stroke-width="1" fill="none" fill-rule="evenodd" sketch:type="MSPage">
        <g id="ukFlag" sketch:type="MSLayerGroup" fill="#DADADA">
            <g id="Page-1" sketch:type="MSShapeGroup">
                <g id="noun_132786_cc">
                    <g id="Group">
                        <path d="M60.3,19.7 L90,3.1 L90,0.7 L87.9,0.7 L54,19.7 L60.3,19.7 L60.3,19.7 Z" id="Shape"></path>
                        <path d="M58.9,35.3 L90,52.7 L90,49.3 L65.1,35.3 L58.9,35.3 L58.9,35.3 Z" id="Shape"></path>
                        <path d="M0,4.7 L26.6,19.7 L32.9,19.7 L0,1.3 L0,4.7 L0,4.7 Z" id="Shape"></path>
                        <path d="M31.5,35.3 L0,52.9 L0,53.3 L5.7,53.3 L37.7,35.3 L31.5,35.3 L31.5,35.3 Z" id="Shape"></path>
                        <path d="M83.8,0.7 L52.3,0.7 L52.3,18.4 L83.8,0.7 L83.8,0.7 Z" id="Shape"></path>
                        <path d="M38.4,0.7 L7,0.7 L38.4,18.4 L38.4,0.7 L38.4,0.7 Z" id="Shape"></path>
                        <path d="M90,19.7 L90,7.7 L68.6,19.7 L90,19.7 L90,19.7 Z" id="Shape"></path>
                        <path d="M90,47.2 L90,35.3 L68.6,35.3 L90,47.2 L90,47.2 Z" id="Shape"></path>
                        <path d="M8.8,53.3 L38.4,53.3 L38.4,36.7 L8.8,53.3 L8.8,53.3 Z" id="Shape"></path>
                        <path d="M52.3,53.3 L82,53.3 L52.3,36.7 L52.3,53.3 L52.3,53.3 Z" id="Shape"></path>
                        <path d="M0,35.3 L0,47.8 L22.1,35.3 L0,35.3 L0,35.3 Z" id="Shape"></path>
                        <path d="M0,19.7 L22.1,19.7 L0,7.3 L0,19.7 L0,19.7 Z" id="Shape"></path>
                        <path d="M41.2,0.7 L41.2,22.9 L0,22.9 L0,32.2 L41.2,32.2 L41.2,53.3 L49.5,53.3 L49.5,32.2 L90,32.2 L90,22.9 L49.5,22.9 L49.5,0.7 L41.2,0.7 L41.2,0.7 Z" id="Shape"></path>
                    </g>
                    <path d="M90,53.5 L0,53.5 L0,0.5 L90,0.5 L90,53.5 L90,53.5 Z M1.4,52.1 L88.6,52.1 L88.6,1.9 L1.4,1.9 L1.4,52.1 L1.4,52.1 Z" id="Shape"></path>
                </g>
            </g>
        </g>
    </g>
</svg>